<?xml version="1.0" encoding="utf-8"?>
<!-- Generator: Adobe Illustrator 18.1.1, SVG Export Plug-In . SVG Version: 6.00 Build 0)  -->
<svg version="1.1" id="Layer_1" xmlns="http://www.w3.org/2000/svg" xmlns:xlink="http://www.w3.org/1999/xlink" x="0px" y="0px"
	 viewBox="-187 189 24 24" enable-background="new -187 189 24 24" xml:space="preserve">
<g id="XMLID_1_">
	<g>
		<path fill="#D9423C" d="M-168.1,199.6c-0.4-0.1-3.7-0.5-4.3-0.6l-1.3,0.2l0.3-1.4c0.3-1.6,0.5-2.9,0.5-4.3c0-0.3-0.2-0.5-0.5-0.5
			s-0.5,0.2-0.5,0.5c0,2.9-1.4,4.3-2.3,5.2c-0.7,0.6-0.7,1.3-0.7,1.3v5c0,0.3,0.2,0.7,0.4,0.9c0.5,0.4,2.7,1.1,4.6,1.1
			c1.5,0,2-0.2,2.5-0.4c0.1,0,0.2-0.1,0.4-0.1c0.1-0.1,0.4-0.4,0.4-0.6l0.7-6C-168,199.7-168.1,199.6-168.1,199.6z M-180,206
			c0.6,0,1-0.4,1-1v-6c0-0.6-0.4-1-1-1s-1,0.4-1,1v6C-181,205.6-180.6,206-180,206z M-177.6,197.2c0.9-1,1.6-1.8,1.6-3.7
			c0-1.4,1.1-2.5,2.5-2.5s2.5,1.1,2.5,2.5c0,1.2-0.1,2.4-0.3,3.6c1.4,0.2,3.5,0.4,3.9,0.6c1,0.3,1.6,1.4,1.4,2.5l-0.7,6
			c-0.2,1-0.9,1.9-1.7,2.2c-0.1,0-0.2,0.1-0.3,0.1c-0.6,0.3-1.4,0.6-3.2,0.6c-2.2,0-4.9-0.8-5.9-1.6c-0.1-0.1-0.1-0.1-0.2-0.2
			c-0.5,0.5-1.2,0.8-2,0.8c-1.6,0-3-1.4-3-3v-6c0-1.6,1.4-3,3-3C-179,196-178.2,196.5-177.6,197.2z"/>
	</g>
	<g>
	</g>
</g>
</svg>
