<?xml version="1.0" encoding="utf-8"?>
<!-- Generator: Adobe Illustrator 18.1.1, SVG Export Plug-In . SVG Version: 6.00 Build 0)  -->
<svg version="1.1" id="Layer_1" xmlns="http://www.w3.org/2000/svg" xmlns:xlink="http://www.w3.org/1999/xlink" x="0px" y="0px"
	 viewBox="-187 189 24 24" enable-background="new -187 189 24 24" xml:space="preserve">
<g id="XMLID_1_">
	<g>
		<path fill="#D9423C" d="M-170,196c-0.6,0-1,0.4-1,1v6c0,0.6,0.4,1,1,1s1-0.4,1-1v-6C-169,196.4-169.4,196-170,196z M-178,195
			c-1.5,0-2,0.2-2.5,0.4c-0.1,0-0.2,0.1-0.4,0.1c-0.1,0.1-0.4,0.4-0.4,0.6l-0.7,6c0,0.1,0.1,0.3,0.1,0.3c0.4,0.1,3.7,0.5,4.3,0.6
			l1.3-0.2l-0.3,1.4c-0.2,1-0.5,2.5-0.5,4.3c0,0.3,0.2,0.5,0.5,0.5s0.5-0.2,0.5-0.5c0-2.9,1.4-4.3,2.3-5.2c0.7-0.7,0.7-1.3,0.7-1.3
			v-5c0-0.3-0.2-0.7-0.4-0.9C-173.9,195.8-176.1,195-178,195z M-178.7,204.9c-1.4-0.2-3.5-0.4-3.9-0.6c-1-0.4-1.6-1.4-1.4-2.5l0.7-6
			c0.2-1,0.9-1.9,1.7-2.2c0.1,0,0.2-0.1,0.3-0.1c0.6-0.3,1.4-0.6,3.2-0.6c2.2,0,4.9,0.8,5.9,1.6c0.1,0.1,0.1,0.1,0.2,0.2
			c0.5-0.5,1.2-0.8,2-0.8c1.6,0,3,1.4,3,3v6c0,1.7-1.4,3-3,3c-1,0-1.8-0.5-2.4-1.2c-0.9,1-1.6,1.8-1.6,3.7c0,1.4-1.1,2.5-2.5,2.5
			s-2.5-1.1-2.5-2.5C-179,207.3-178.9,206.1-178.7,204.9z"/>
	</g>
	<g>
	</g>
</g>
</svg>
